<?xml version="1.0" encoding="UTF-8"?><svg id="Layer_2" xmlns="http://www.w3.org/2000/svg" viewBox="0 0 682.73 170.18"><defs><style>.cls-1{fill:#232323;}.cls-2{fill:#ee1c4e;}</style></defs><g id="Layer_1-2"><g><path class="cls-1" d="M222.8,145.56c0,8.7,7.08,15.78,15.78,15.78h24.55v8.77h-24.55c-13.54,0-24.55-11.01-24.55-24.55s11.01-24.55,24.55-24.55h24.55v8.77h-24.55c-8.7,0-15.78,7.08-15.78,15.78Z"/><path class="cls-1" d="M292.94,134.27v4.56h31.57v8.77h-31.57v9.26c0,2.46,2.03,4.49,4.49,4.49h35.84v8.77h-35.84c-7.29,0-13.19-5.96-13.19-13.26v-22.59c0-7.3,5.89-13.26,13.19-13.26h35.84v8.77h-35.84c-2.46,0-4.49,2.03-4.49,4.49Z"/><path class="cls-1" d="M403.42,121.08v49.1l-8.77-6.73-31.57-24.34v31.07h-8.77v-48.96l8.77,6.73,31.57,24.34v-31.28l8.77,.07Z"/><path class="cls-1" d="M473.49,121.08v8.77h-20.13v40.33h-8.77v-40.33h-20.13v-8.77h49.03Z"/><path class="cls-1" d="M503.37,134.27v4.56h31.57v8.77h-31.57v9.26c0,2.46,2.03,4.49,4.49,4.49h35.84v8.77h-35.84c-7.29,0-13.19-5.96-13.19-13.26v-22.59c0-7.3,5.89-13.26,13.19-13.26h35.84v8.77h-35.84c-2.46,0-4.49,2.03-4.49,4.49Z"/><path class="cls-1" d="M604.38,161.41l4.49,8.77h-9.82l-4.49-8.77-4.7-9.19-.21-.42c-1.54-2.53-4.28-4.21-7.43-4.21h-8.77v22.59h-8.77v-49.1h31c3.65,0,6.94,1.47,9.33,3.86,2.38,2.46,3.86,5.75,3.86,9.4,0,5.33-3.16,9.96-7.72,12.06-1.19,.56-2.46,.91-3.79,1.05l7.01,13.96Zm-8.7-22.59c.63,0,1.26-.14,1.82-.42,1.61-.7,2.67-2.31,2.67-4.07,0-1.61-.84-2.74-1.33-3.23-.56-.56-1.61-1.26-3.16-1.26h-22.24v9.05l22.24-.07Z"/></g><g><path class="cls-1" d="M235.92,14.17c0,3.65-2.97,6.62-6.62,6.62h-14.17V0h13.1c3.09,0,5.62,2.53,5.62,5.62,0,1.13-.33,2.17-.89,3.03,1.78,1.19,2.97,3.21,2.97,5.53Zm-17.08-6.65h9.42c1.04,0,1.9-.86,1.9-1.9s-.86-1.9-1.9-1.9h-9.42v3.8Zm10.46,9.54c1.6,0,2.91-1.31,2.91-2.91s-1.31-2.91-2.91-2.91h-10.46v5.85h10.46v-.03Z"/><path class="cls-1" d="M281.96,20.8h-4.16l-1.9-3.71-4.55-8.91-4.54,8.91-1.9,3.71h-4.16l1.9-3.71L271.35,0l8.71,17.08,1.9,3.71Z"/><path class="cls-1" d="M319.2,8.35l9,12.45h-4.58l-7.19-9.92-5.26,4.78v5.14h-3.71V0h3.71V10.64l3.06-2.79,2.76-2.53,5.79-5.32h5.5l-9.09,8.35Z"/><path class="cls-1" d="M356.95,5.62v1.93h13.37v3.71h-13.37v3.92c0,1.04,.86,1.9,1.9,1.9h15.18v3.71h-15.18c-3.09,0-5.58-2.53-5.58-5.61V5.62c0-3.09,2.5-5.62,5.58-5.62h15.18V3.71h-15.18c-1.04,0-1.9,.86-1.9,1.9Z"/><path class="cls-1" d="M417.55,17.11l1.9,3.71h-4.16l-1.9-3.71-1.99-3.89-.09-.18c-.65-1.07-1.81-1.78-3.15-1.78h-3.71v9.57h-3.71V.03h13.13c1.54,0,2.94,.62,3.95,1.63,1.01,1.04,1.63,2.44,1.63,3.98,0,2.26-1.34,4.22-3.27,5.11-.5,.24-1.04,.39-1.6,.45l2.97,5.91Zm-3.68-9.57c.27,0,.54-.06,.77-.18,.68-.3,1.13-.98,1.13-1.72,0-.68-.36-1.16-.56-1.37-.24-.24-.68-.53-1.34-.53h-9.42v3.83l9.42-.03Z"/><path class="cls-1" d="M462.16,5.76v-.12c0-1.04-.86-1.9-1.9-1.9h-8.44c-1.04,0-1.9,.86-1.9,1.9v.12c0,1.04,.86,1.9,1.9,1.9h7.49c1.93,0,3.65,.83,4.84,2.14,.09,.09,.15,.18,.24,.27,.92,1.13,1.49,2.58,1.49,4.16,0,3.62-2.94,6.57-6.57,6.57h-6.51c-3.62,0-6.57-2.94-6.57-6.57h3.71c0,1.57,1.28,2.85,2.85,2.85h6.51c1.57,0,2.88-1.28,2.88-2.85s-1.31-2.85-2.88-2.85h-7.49c-1.52,0-2.88-.59-3.89-1.57-.27-.27-.51-.56-.71-.89-.62-.89-.98-1.99-.98-3.18v-.12c0-3.09,2.5-5.62,5.58-5.62h8.44c3.09,0,5.61,2.53,5.61,5.62v.12l-3.71,.03Z"/><path class="cls-1" d="M513.43,0V3.71h-15.18c-1.04,0-1.9,.86-1.9,1.9v1.93h13.37v3.71h-13.4v9.54h-3.68V5.62c0-3.09,2.5-5.62,5.58-5.62h15.21Z"/><path class="cls-1" d="M540.13,20.8V0h3.71V20.8h-3.71Z"/><path class="cls-1" d="M574.29,5.62v1.93h13.37v3.71h-13.37v3.92c0,1.04,.86,1.9,1.9,1.9h15.18v3.71h-15.18c-3.09,0-5.58-2.53-5.58-5.61V5.62c0-3.09,2.5-5.62,5.58-5.62h15.18V3.71h-15.18c-1.04,0-1.9,.86-1.9,1.9Z"/><path class="cls-1" d="M635.24,17.11v3.71h-10.55c-1.04,0-2.02-.24-2.91-.68-1.31-.65-2.38-1.72-3-3.03-.45-.89-.68-1.87-.68-2.91V.03h3.71V14.56c.18,1.31,1.22,2.35,2.53,2.53l10.9,.03Z"/><path class="cls-1" d="M672.33,.03c5.73,0,10.4,4.63,10.4,10.37,0,2.55-.92,4.9-2.47,6.71-.18,.21-.39,.42-.59,.62-1.87,1.9-4.46,3.06-7.31,3.06h-10.4V0l10.37,.03Zm-6.68,17.08h6.68c3.68,0,6.68-3,6.68-6.68s-3-6.68-6.68-6.68h-6.68v13.37Z"/></g><g><path class="cls-1" d="M223.5,63.44v4.56h31.57v8.77h-31.57v9.26c0,2.46,2.03,4.49,4.49,4.49h35.84v8.77h-35.84c-7.29,0-13.19-5.96-13.19-13.26v-22.59c0-7.3,5.89-13.26,13.19-13.26h35.84v8.77h-35.84c-2.46,0-4.49,2.03-4.49,4.49Z"/><path class="cls-1" d="M322.54,63.8v-.28c0-2.46-2.03-4.49-4.49-4.49h-19.92c-2.46,0-4.49,2.03-4.49,4.49v.28c0,2.46,2.03,4.49,4.49,4.49h17.68c4.56,0,8.63,1.96,11.43,5.05,.21,.21,.35,.42,.56,.63,2.17,2.67,3.51,6.1,3.51,9.82,0,8.56-6.94,15.5-15.5,15.5h-15.36c-8.56,0-15.5-6.94-15.5-15.5h8.77c0,3.72,3.02,6.73,6.73,6.73h15.36c3.72,0,6.8-3.02,6.8-6.73s-3.09-6.73-6.8-6.73h-17.68c-3.58,0-6.8-1.4-9.19-3.72-.63-.63-1.19-1.33-1.68-2.1-1.47-2.1-2.32-4.7-2.32-7.51v-.28c0-7.3,5.89-13.26,13.19-13.26h19.92c7.29,0,13.26,5.96,13.26,13.26v.28l-8.77,.07Z"/><path class="cls-1" d="M392.76,54.19c2.39,2.38,3.86,5.68,3.86,9.33,0,5.33-3.16,9.96-7.72,12.06-1.19,.56-2.46,.91-3.79,1.05h-.42v.07h-23.5v22.59h-8.77V50.19h30.93c3.65,0,6.94,1.47,9.33,3.86l.07,.14Zm-7.5,13.4c1.61-.7,2.67-2.31,2.67-4.07,0-1.61-.84-2.74-1.33-3.23-.56-.56-1.61-1.26-3.16-1.26h-22.24v9.05h22.24c.63,0,1.26-.14,1.82-.42v-.07Z"/><path class="cls-1" d="M461.85,74.74c0,13.54-11.01,24.55-24.55,24.55s-24.55-11.01-24.55-24.55,11.01-24.55,24.55-24.55,24.55,11.01,24.55,24.55Zm-8.77,0c0-8.7-7.08-15.78-15.78-15.78s-15.78,7.08-15.78,15.78,7.08,15.78,15.78,15.78,15.78-7.08,15.78-15.78Z"/><path class="cls-1" d="M520.77,90.59l4.49,8.77h-9.82l-4.49-8.77-4.7-9.19-.21-.42c-1.54-2.53-4.28-4.21-7.43-4.21h-8.77v22.59h-8.77V50.26h31c3.65,0,6.94,1.47,9.33,3.86,2.38,2.46,3.86,5.75,3.86,9.4,0,5.33-3.16,9.96-7.72,12.06-1.19,.56-2.46,.91-3.79,1.05l7.01,13.96Zm-8.7-22.59c.63,0,1.26-.14,1.82-.42,1.61-.7,2.67-2.31,2.67-4.07,0-1.61-.84-2.74-1.33-3.23-.56-.56-1.61-1.26-3.16-1.26h-22.24v9.05l22.24-.07Z"/><path class="cls-1" d="M593.09,50.26v8.77h-20.13v40.33h-8.77V59.03h-20.13v-8.77h49.03Z"/><path class="cls-1" d="M651.87,63.8v-.28c0-2.46-2.03-4.49-4.49-4.49h-19.92c-2.46,0-4.49,2.03-4.49,4.49v.28c0,2.46,2.03,4.49,4.49,4.49h17.68c4.56,0,8.63,1.96,11.43,5.05,.21,.21,.35,.42,.56,.63,2.17,2.67,3.51,6.1,3.51,9.82,0,8.56-6.94,15.5-15.5,15.5h-15.36c-8.56,0-15.5-6.94-15.5-15.5h8.77c0,3.72,3.02,6.73,6.73,6.73h15.36c3.72,0,6.8-3.02,6.8-6.73s-3.09-6.73-6.8-6.73h-17.68c-3.58,0-6.8-1.4-9.19-3.72-.63-.63-1.19-1.33-1.68-2.1-1.47-2.1-2.32-4.7-2.32-7.51v-.28c0-7.3,5.89-13.26,13.19-13.26h19.92c7.29,0,13.26,5.96,13.26,13.26v.28l-8.77,.07Z"/></g><g><path class="cls-2" d="M113.35,106.44c.5-.63,.97-1.28,1.42-1.94,2.56-3.79,4.18-7.96,4.98-12.23h28.22c-6.65-10.84-17.23-19-29.76-22.52l-12.24,15.57,.26-.02-25.81,32.82c11.92,2.69,24.88-1.44,32.94-11.68Z"/><path class="cls-2" d="M27.36,93.79c-1.95-15.69,2.12-32.1,12.58-45.32,17.8-22.49,48.31-29.04,73.26-17.46,.06,.03,.12,.06,.18,.08,4.14,1.94,8.12,4.37,11.86,7.32,3.46,2.72,6.54,5.76,9.24,9.02L171.59,1.09H57.14C28.89,1.09,6,23.98,6,52.23c0,17.13,8.43,32.28,21.36,41.56Z"/><path class="cls-2" d="M136.89,121.9c-.46,.65-.94,1.29-1.44,1.92-21.44,27.26-61.5,31.26-87.94,8.12-5.94-5.19-10.61-11.33-14-18.01L0,170.11H104.34c28.24,0,51.14-22.9,51.14-51.14,0-9.7-2.7-18.77-7.39-26.49-1.06,10.32-4.72,20.48-11.2,29.42Z"/><path class="cls-2" d="M61.92,66c-8.06,10.25-9.02,23.81-3.59,34.76l36.53-46.46c-11.92-2.69-24.88,1.44-32.94,11.7Z"/></g></g></svg>